<svg xmlns="http://www.w3.org/2000/svg" viewBox="0 0 124.724 17.394">
				<linearGradient id="SVGID_1_" gradientUnits="userSpaceOnUse" x1="0.0137" y1="2.8364" x2="123.98" y2="19.7083">
					<stop  offset="0" style="stop-color:#C9252C"/>
					<stop  offset="0.1256" style="stop-color:#D0422B"/>
					<stop  offset="0.4203" style="stop-color:#E06F27"/>
					<stop  offset="0.6748" style="stop-color:#EC8C23"/>
					<stop  offset="0.8764" style="stop-color:#F59E1D"/>
					<stop  offset="1" style="stop-color:#FAA61A"/>
				</linearGradient>
				<path fill="url(#SVGID_1_)" d="M8.567,7.561c-0.125,0.154-0.216,0.095-0.42-0.048C7.944,7.355,7.874,7.273,8,7.106l0.364-0.451
					c0.157-0.193,0.103-0.278-0.046-0.371C7.58,5.831,7.424,5.151,7.424,4.294c0-1.372,0.296-2.468,3.275-2.468
					c0.53,0,0.861,0.056,1.211,0.105c0.125,0.011,0.204-0.012,0.305-0.143l0.601-0.767c0.126-0.166,0.216-0.093,0.409,0.05
					c0.206,0.144,0.282,0.24,0.157,0.394L13.031,1.92c-0.159,0.202-0.112,0.274,0.043,0.367c0.74,0.468,0.897,1.134,0.897,2.007
					c0,1.369-0.296,2.453-3.272,2.453c-0.547,0-0.874-0.057-1.213-0.092c-0.125-0.014-0.205,0-0.306,0.13L8.567,7.561z M11.445,2.79
					c0.126-0.155,0.081-0.286-0.112-0.323c-0.182-0.034-0.385-0.044-0.634-0.044c-1.554,0-1.688,0.688-1.688,1.858
					c0,0.367,0.019,0.704,0.144,1.025c0.058,0.143,0.171,0.201,0.297,0.047L11.445,2.79z M12.386,4.281
					c0-0.371-0.033-0.68-0.146-1.004c-0.06-0.153-0.173-0.202-0.295-0.045L9.95,5.785c-0.125,0.166-0.077,0.283,0.113,0.319
					c0.18,0.038,0.386,0.059,0.636,0.059C12.25,6.163,12.386,5.449,12.386,4.281z"/>
				<linearGradient id="SVGID_2_" gradientUnits="userSpaceOnUse" x1="0.2471" y1="1.1445" x2="124.1992" y2="18.0144">
					<stop  offset="0" style="stop-color:#C9252C"/>
					<stop  offset="0.1256" style="stop-color:#D0422B"/>
					<stop  offset="0.4203" style="stop-color:#E06F27"/>
					<stop  offset="0.6748" style="stop-color:#EC8C23"/>
					<stop  offset="0.8764" style="stop-color:#F59E1D"/>
					<stop  offset="1" style="stop-color:#FAA61A"/>
				</linearGradient>
				<path fill="url(#SVGID_2_)" d="M16.092,6.616c-0.636,0-0.715-0.142-0.715-0.595V0.608C15.377,0.143,15.442,0,16.068,0h0.126
					c0.633,0,0.709,0.143,0.709,0.608v5.413c0,0.453-0.063,0.595-0.688,0.595H16.092z"/>
				<linearGradient id="SVGID_3_" gradientUnits="userSpaceOnUse" x1="0.0942" y1="2.2808" x2="124.0389" y2="19.1496">
					<stop  offset="0" style="stop-color:#C9252C"/>
					<stop  offset="0.1256" style="stop-color:#D0422B"/>
					<stop  offset="0.4203" style="stop-color:#E06F27"/>
					<stop  offset="0.6748" style="stop-color:#EC8C23"/>
					<stop  offset="0.8764" style="stop-color:#F59E1D"/>
					<stop  offset="1" style="stop-color:#FAA61A"/>
				</linearGradient>
				<path fill="url(#SVGID_3_)" d="M19.354,8.408c-0.271-0.051-0.32-0.085-0.32-0.396c0-0.333,0.104-0.378,0.354-0.356
					c0.283,0.037,1.064,0.168,2.106,0.168c1.043,0,1.61-0.061,1.61-0.861v-0.32c0-0.239-0.137-0.271-0.284-0.265
					c-0.125,0.013-0.657,0.085-1.326,0.085c-2.537,0-3.182-0.666-3.182-2.312c0-1.634,0.589-2.324,3.237-2.324
					c1.065,0,1.938,0.116,2.337,0.2c0.679,0.157,0.746,0.465,0.746,0.944v3.634c0,1.67-1.055,1.956-2.968,1.956
					C20.521,8.561,19.614,8.443,19.354,8.408z M22.864,5.723c0.114-0.023,0.239-0.046,0.239-0.237V2.803
					c0-0.203-0.125-0.219-0.239-0.237c-0.113-0.025-0.679-0.106-1.303-0.106c-1.213,0-1.655,0.212-1.655,1.678
					s0.454,1.681,1.655,1.681C22.186,5.817,22.751,5.745,22.864,5.723z"/>
				<linearGradient id="SVGID_4_" gradientUnits="userSpaceOnUse" x1="0.4287" y1="-0.249" x2="124.4172" y2="16.6258">
					<stop  offset="0" style="stop-color:#C9252C"/>
					<stop  offset="0.1256" style="stop-color:#D0422B"/>
					<stop  offset="0.4203" style="stop-color:#E06F27"/>
					<stop  offset="0.6748" style="stop-color:#EC8C23"/>
					<stop  offset="0.8764" style="stop-color:#F59E1D"/>
					<stop  offset="1" style="stop-color:#FAA61A"/>
				</linearGradient>
				<path fill="url(#SVGID_4_)" d="M39.267,6.021c0,0.453-0.069,0.595-0.69,0.595H38.45c-0.634,0-0.713-0.142-0.713-0.595V3.54
					c0-0.915-0.478-1.058-1.312-1.058c-0.42,0-0.954,0.045-1.361,0.143c-0.147,0.034-0.237,0.106-0.237,0.318v3.078
					c0,0.453-0.068,0.595-0.69,0.595H34.01c-0.632,0-0.714-0.142-0.714-0.595V3.54c0-0.915-0.475-1.058-1.312-1.058
					c-0.419,0-0.952,0.045-1.359,0.143c-0.147,0.034-0.239,0.106-0.239,0.318v3.078c0,0.453-0.066,0.595-0.691,0.595H29.57
					c-0.637,0-0.714-0.142-0.714-0.595V2.755c0-0.395,0.068-0.571,0.903-0.729c0.569-0.106,1.487-0.2,2.302-0.2
					c0.656,0,1.189,0.105,1.45,0.212c0.452,0.167,0.512,0.201,1.065,0.049c0.509-0.132,1.178-0.261,1.823-0.261
					c2.413,0,2.866,0.511,2.866,1.798V6.021z"/>
				<linearGradient id="SVGID_5_" gradientUnits="userSpaceOnUse" x1="0.6147" y1="-1.6226" x2="124.6025" y2="15.2522">
					<stop  offset="0" style="stop-color:#C9252C"/>
					<stop  offset="0.1256" style="stop-color:#D0422B"/>
					<stop  offset="0.4203" style="stop-color:#E06F27"/>
					<stop  offset="0.6748" style="stop-color:#EC8C23"/>
					<stop  offset="0.8764" style="stop-color:#F59E1D"/>
					<stop  offset="1" style="stop-color:#FAA61A"/>
				</linearGradient>
				<path fill="url(#SVGID_5_)" d="M40.616,4.281c0-1.576,0.475-2.47,3.214-2.47c1.994,0,3.174,0.501,3.185,2.159
					c0,0.49-0.069,0.644-0.862,0.644h-3.691c-0.149,0-0.262,0.034-0.262,0.263c0,1.074,0.989,1.107,2.175,1.107
					c0.702,0,1.643-0.105,1.813-0.133c0.263-0.034,0.361-0.021,0.361,0.312c0,0.312-0.044,0.36-0.325,0.407
					c-0.116,0.025-0.965,0.154-2.086,0.154C41.42,6.725,40.616,6.047,40.616,4.281z M45.135,3.971c0.159,0,0.272-0.049,0.272-0.264
					c0-0.94-0.41-1.264-1.585-1.264c-1.167,0-1.587,0.301-1.587,1.264c0,0.215,0.111,0.264,0.271,0.264H45.135z"/>
				<linearGradient id="SVGID_6_" gradientUnits="userSpaceOnUse" x1="0.8906" y1="-3.6211" x2="124.8679" y2="13.2522">
					<stop  offset="0" style="stop-color:#C9252C"/>
					<stop  offset="0.1256" style="stop-color:#D0422B"/>
					<stop  offset="0.4203" style="stop-color:#E06F27"/>
					<stop  offset="0.6748" style="stop-color:#EC8C23"/>
					<stop  offset="0.8764" style="stop-color:#F59E1D"/>
					<stop  offset="1" style="stop-color:#FAA61A"/>
				</linearGradient>
				<path fill="url(#SVGID_6_)" d="M48.079,4.281c0-1.697,0.521-2.455,3.147-2.455c0.549,0,0.999,0.032,1.372,0.068
					c0.148,0.014,0.273-0.013,0.273-0.237V0.608C52.872,0.143,52.94,0,53.553,0h0.122C54.323,0,54.4,0.143,54.4,0.608v5.243
					c0,0.398-0.067,0.6-0.859,0.73c-0.499,0.083-1.325,0.155-2.223,0.155C48.658,6.737,48.079,5.972,48.079,4.281z M52.634,5.999
					c0.113-0.027,0.238-0.048,0.238-0.254V2.812c0-0.2-0.125-0.235-0.238-0.264c-0.111-0.021-0.68-0.09-1.305-0.09
					c-1.212,0-1.652,0.285-1.652,1.822c0,1.536,0.44,1.823,1.652,1.823C51.954,6.104,52.522,6.021,52.634,5.999z"/>
				<linearGradient id="SVGID_7_" gradientUnits="userSpaceOnUse" x1="0.9932" y1="-4.332" x2="124.9558" y2="12.5393">
					<stop  offset="0" style="stop-color:#C9252C"/>
					<stop  offset="0.1256" style="stop-color:#D0422B"/>
					<stop  offset="0.4203" style="stop-color:#E06F27"/>
					<stop  offset="0.6748" style="stop-color:#EC8C23"/>
					<stop  offset="0.8764" style="stop-color:#F59E1D"/>
					<stop  offset="1" style="stop-color:#FAA61A"/>
				</linearGradient>
				<path fill="url(#SVGID_7_)" d="M57.13,4.186c-0.646,0-0.724-0.144-0.724-0.598l-0.034-2.979C56.372,0.143,56.45,0,57.064,0
					h0.125c0.645,0,0.713,0.143,0.713,0.608l-0.036,2.979c0,0.454-0.065,0.598-0.677,0.598H57.13z M56.383,5.771
					c0-0.848,0.102-0.883,0.76-0.883s0.76,0.035,0.76,0.883c0,0.799-0.102,0.845-0.76,0.845S56.383,6.57,56.383,5.771z"/>
			
		
		<linearGradient id="SVGID_8_" gradientUnits="userSpaceOnUse" x1="0.0278" y1="2.7339" x2="123.9983" y2="19.6063">
			<stop  offset="0" style="stop-color:#C9252C"/>
			<stop  offset="0.1256" style="stop-color:#D0422B"/>
			<stop  offset="0.4203" style="stop-color:#E06F27"/>
			<stop  offset="0.6748" style="stop-color:#EC8C23"/>
			<stop  offset="0.8764" style="stop-color:#F59E1D"/>
			<stop  offset="1" style="stop-color:#FAA61A"/>
		</linearGradient>
		<path fill="url(#SVGID_8_)" d="M7.174,0c0,0-6.669,0-6.818,0C0.046,0,0,0.212,0,0.35c0,0.037,0,0.032,0,0.067
			c0,0.152,0.074,0.348,0.355,0.348c0.157,0,0.347,0,0.347,0L0.701,5.963c0,0.512,0.083,0.653,0.773,0.653h0.138
			c0.645,0,0.736-0.142,0.736-0.653V4.281C2.349,4.03,2.46,3.91,2.71,3.91h3.161c0.272,0,0.327-0.105,0.327-0.429
			c0-0.271-0.055-0.406-0.327-0.406H2.71c-0.26,0-0.361-0.118-0.361-0.37V1.193c0-0.254,0.111-0.37,0.361-0.37h4.464
			c0.271,0,0.34-0.095,0.34-0.418C7.514,0.132,7.444,0,7.174,0z"/>

			<linearGradient id="SVGID_9_" gradientUnits="userSpaceOnUse" x1="0.7314" y1="-2.146" x2="124.6985" y2="14.7259">
				<stop  offset="0" style="stop-color:#C9252C"/>
				<stop  offset="0.1256" style="stop-color:#D0422B"/>
				<stop  offset="0.4203" style="stop-color:#E06F27"/>
				<stop  offset="0.6748" style="stop-color:#EC8C23"/>
				<stop  offset="0.8764" style="stop-color:#F59E1D"/>
				<stop  offset="1" style="stop-color:#FAA61A"/>
			</linearGradient>
			<path fill="url(#SVGID_9_)" d="M121.673,11.045c-0.174-0.319-0.4-0.471-0.715-0.476c-0.266,0-2.559,0-2.559,0
				c-0.254,0-0.417,0.155-0.417,0.392v0.069c0,0.272,0.209,0.395,0.417,0.395h0.362c-0.322,0.603-2.679,5.01-2.756,5.154
				c-0.077,0.146-0.327,0.648,0.294,0.648h0.425c0.288,0,0.35-0.12,0.452-0.317c0.071-0.135,0.636-1.302,0.659-1.349
				c0.068-0.126,0.068-0.126,0.196-0.126h4.075c0.133,0,0.133,0,0.196,0.126l0.654,1.345c0.085,0.165,0.202,0.321,0.486,0.321h0.824
				c0.599,0,0.466-0.435,0.379-0.594C124.603,16.549,121.774,11.23,121.673,11.045z M118.438,14.433
				c0.014-0.028,1.429-2.758,1.477-2.841c0.013-0.022,0.023-0.04,0.03-0.06c0.03-0.062,0.038-0.079,0.135-0.079
				c0.103,0,0.112,0.019,0.152,0.101l0.017,0.034c0.054,0.106,1.442,2.735,1.505,2.854c0.002,0.001,0.003,0.004,0.006,0.008
				l-3.331-0.001C118.432,14.446,118.434,14.438,118.438,14.433z"/>
			<linearGradient id="SVGID_10_" gradientUnits="userSpaceOnUse" x1="0.6562" y1="-1.5415" x2="124.6137" y2="15.3291">
				<stop  offset="0" style="stop-color:#C9252C"/>
				<stop  offset="0.1256" style="stop-color:#D0422B"/>
				<stop  offset="0.4203" style="stop-color:#E06F27"/>
				<stop  offset="0.6748" style="stop-color:#EC8C23"/>
				<stop  offset="0.8764" style="stop-color:#F59E1D"/>
				<stop  offset="1" style="stop-color:#FAA61A"/>
			</linearGradient>
			<path fill="url(#SVGID_10_)" d="M114.392,10.569h-1.376c-0.27,0-0.417,0.14-0.417,0.395v0.068c0,0.093,0.029,0.394,0.417,0.394
				h0.316v5.295c0,0.263,0.058,0.507,0.488,0.507h0.585c0.438,0,0.496-0.255,0.496-0.507v-5.644
				C114.901,10.721,114.754,10.574,114.392,10.569z"/>
			<linearGradient id="SVGID_11_" gradientUnits="userSpaceOnUse" x1="0.166" y1="1.8921" x2="124.1532" y2="18.7668">
				<stop  offset="0" style="stop-color:#C9252C"/>
				<stop  offset="0.1256" style="stop-color:#D0422B"/>
				<stop  offset="0.4203" style="stop-color:#E06F27"/>
				<stop  offset="0.6748" style="stop-color:#EC8C23"/>
				<stop  offset="0.8764" style="stop-color:#F59E1D"/>
				<stop  offset="1" style="stop-color:#FAA61A"/>
			</linearGradient>
			<path fill="url(#SVGID_11_)" d="M93.37,11.357c-0.04-0.484-0.311-0.788-0.702-0.788h-1.36c-0.376,0-0.626,0.168-0.747,0.499
				c-0.08,0.218-0.678,1.935-1.157,3.312c-0.275,0.793-0.519,1.494-0.585,1.683c-0.088-0.25-0.415-1.188-0.758-2.173
				c-0.448-1.289-0.934-2.68-0.984-2.822c-0.102-0.289-0.416-0.496-0.747-0.499c-0.099,0-2.435,0-2.435,0
				c-0.375,0-0.416,0.266-0.416,0.38v0.076c0,0.19,0.108,0.394,0.416,0.394h0.351c-0.052,0.534-0.5,5.147-0.515,5.287
				c-0.053,0.516,0.209,0.521,0.408,0.521h0.415c0.268,0,0.388-0.049,0.428-0.518c0,0,0.417-5.102,0.417-5.146
				c0.002-0.1,0.029-0.1,0.065-0.1c0.066,0,0.066,0,0.109,0.116c0.011,0.031,1.656,4.738,1.795,5.141
				c0.162,0.47,0.611,0.507,0.745,0.507h0.951c0.362,0,0.619-0.174,0.74-0.502c0.069-0.196,1.787-5.122,1.794-5.147
				c0.04-0.108,0.051-0.114,0.103-0.114c0.07,0,0.077,0.003,0.083,0.105c0.005,0.036,0.419,5.086,0.437,5.258
				c0.023,0.283,0.154,0.4,0.451,0.4h0.731c0.162,0,0.453-0.031,0.414-0.437C93.812,16.736,93.394,11.631,93.37,11.357z"/>
			<linearGradient id="SVGID_12_" gradientUnits="userSpaceOnUse" x1="0.5024" y1="-0.5195" x2="124.4774" y2="16.3535">
				<stop  offset="0" style="stop-color:#C9252C"/>
				<stop  offset="0.1256" style="stop-color:#D0422B"/>
				<stop  offset="0.4203" style="stop-color:#E06F27"/>
				<stop  offset="0.6748" style="stop-color:#EC8C23"/>
				<stop  offset="0.8764" style="stop-color:#F59E1D"/>
				<stop  offset="1" style="stop-color:#FAA61A"/>
			</linearGradient>
			<path fill="url(#SVGID_12_)" d="M107.577,10.569h-4.02c-0.269,0-0.416,0.14-0.416,0.392v0.07c0,0.255,0.147,0.394,0.416,0.394
				h0.279v4.989c0,0.439,0.343,0.813,0.747,0.813h2.986c3.373,0,3.991-1.148,3.991-3.408
				C111.562,11.711,110.927,10.569,107.577,10.569z M109.875,13.808c0,1.921-0.563,2.445-2.622,2.445h-1.822
				c-0.013,0-0.019-0.005-0.019-0.021v-4.675c0-0.041,0.012-0.048,0.039-0.048h1.802C109.219,11.51,109.875,11.842,109.875,13.808z"
				/>
			<linearGradient id="SVGID_13_" gradientUnits="userSpaceOnUse" x1="-1.0566" y1="10.9644" x2="122.9043" y2="27.8354">
				<stop  offset="0" style="stop-color:#C9252C"/>
				<stop  offset="0.1256" style="stop-color:#D0422B"/>
				<stop  offset="0.4203" style="stop-color:#E06F27"/>
				<stop  offset="0.6748" style="stop-color:#EC8C23"/>
				<stop  offset="0.8764" style="stop-color:#F59E1D"/>
				<stop  offset="1" style="stop-color:#FAA61A"/>
			</linearGradient>
			<path fill="url(#SVGID_13_)" d="M23.659,14.212c-0.104-0.021-0.129-0.028-0.129-0.087c0-0.046,0.041-0.063,0.136-0.086
				c0.85-0.205,1.506-0.538,1.506-1.602c0-1.62-1.402-1.828-2.624-1.828h-4.731c-0.201,0-0.416,0.104-0.416,0.392v0.068
				c0,0.291,0.215,0.395,0.416,0.395h0.279v5.296c0.004,0.365,0.136,0.501,0.489,0.504h0.605c0.344-0.003,0.489-0.153,0.489-0.504
				v-2.106c0,0,0-0.019,0.021-0.019l2.213,0.056c0.688,0.041,1.633,0.097,1.686,0.938l0.062,1.141
				c0.029,0.359,0.17,0.492,0.52,0.494h0.604c0.188,0,0.328-0.047,0.418-0.137c0.076-0.08,0.114-0.187,0.112-0.324l-0.062-1.047
				C25.159,14.558,24.427,14.356,23.659,14.212z M23.508,12.608c0.02,1.013-0.91,1.045-1.742,1.071l-2.075,0.06
				c-0.018,0-0.018-0.006-0.018-0.019v-2.142c0-0.008,0.005-0.021,0.018-0.021h2.53C23.393,11.559,23.498,12.034,23.508,12.608z"/>
			<linearGradient id="SVGID_14_" gradientUnits="userSpaceOnUse" x1="-0.2124" y1="4.7109" x2="123.7706" y2="21.585">
				<stop  offset="0" style="stop-color:#C9252C"/>
				<stop  offset="0.1256" style="stop-color:#D0422B"/>
				<stop  offset="0.4203" style="stop-color:#E06F27"/>
				<stop  offset="0.6748" style="stop-color:#EC8C23"/>
				<stop  offset="0.8764" style="stop-color:#F59E1D"/>
				<stop  offset="1" style="stop-color:#FAA61A"/>
			</linearGradient>
			<path fill="url(#SVGID_14_)" d="M71.328,17.068c0.047-0.12,0.008-0.259-0.101-0.358c-0.136-0.13-2.897-2.702-3.253-3.034
				l2.899-2.555c0.093-0.088,0.127-0.222,0.084-0.334c-0.045-0.111-0.159-0.178-0.311-0.178h-0.738c-0.166,0-0.248,0.047-0.35,0.136
				c-0.086,0.077-2.765,2.502-2.817,2.544c-0.108,0.085-0.151,0.108-0.494,0.132c-0.423,0.029-0.612,0.03-0.615,0.03
				c-0.008,0-0.012-0.011-0.012-0.019v-2.318c0-0.343-0.159-0.505-0.5-0.505h-1.364c-0.328,0-0.415,0.256-0.415,0.39v0.07
				c0,0.257,0.143,0.394,0.415,0.394h0.279v5.297c0,0.335,0.165,0.504,0.489,0.504h0.605c0.339,0,0.49-0.155,0.49-0.504
				c0,0,0-2.317,0-2.352c0-0.025,0.004-0.029,0.004-0.029s0.005-0.002,0.015-0.002c0.065,0,0.452,0.013,0.649,0.021
				c0.271,0.015,0.39,0.031,0.496,0.137c0.085,0.087,1.896,1.932,2.464,2.511c0.145,0.146,0.227,0.218,0.492,0.218h1.243
				C71.151,17.264,71.28,17.189,71.328,17.068z"/>
			<linearGradient id="SVGID_15_" gradientUnits="userSpaceOnUse" x1="-1.3687" y1="13.249" x2="122.6068" y2="30.1221">
				<stop  offset="0" style="stop-color:#C9252C"/>
				<stop  offset="0.1256" style="stop-color:#D0422B"/>
				<stop  offset="0.4203" style="stop-color:#E06F27"/>
				<stop  offset="0.6748" style="stop-color:#EC8C23"/>
				<stop  offset="0.8764" style="stop-color:#F59E1D"/>
				<stop  offset="1" style="stop-color:#FAA61A"/>
			</linearGradient>
			<path fill="url(#SVGID_15_)" d="M6.544,13.863c-0.134-0.024-0.151-0.038-0.151-0.084c0-0.057,0.01-0.072,0.146-0.097
				c1.011-0.184,1.465-0.626,1.465-1.405c0-0.774-0.29-1.668-2.55-1.668H0.425c-0.193,0-0.418,0.103-0.418,0.392v0.068
				c0,0.291,0.225,0.395,0.418,0.395h0.278v4.987c0,0.479,0.334,0.812,0.81,0.812h3.776c0.74,0,2.993,0,2.993-1.769
				C8.282,14.169,7.269,13.991,6.544,13.863z M2.297,11.547c0.015,0.002,2.878,0,2.878,0c1.064,0,1.152,0.446,1.152,0.901
				c0,0.687-0.523,0.856-1.368,0.908c-0.787,0.049-2.645,0.089-2.666,0.089c-0.014,0-0.016-0.003-0.016-0.016v-1.862
				C2.277,11.551,2.29,11.547,2.297,11.547L2.297,11.547z M2.277,14.296c0-0.012,0.01-0.018,0.021-0.018h0.007
				c0.188,0,1.48,0.017,2.676,0.079c1.383,0.073,1.604,0.361,1.604,1.021c0,0.839-0.786,0.947-1.471,0.947H2.298
				c-0.008,0-0.021,0-0.021-0.025V14.296z"/>
			<linearGradient id="SVGID_16_" gradientUnits="userSpaceOnUse" x1="-1.1909" y1="11.9565" x2="122.7624" y2="28.8266">
				<stop  offset="0" style="stop-color:#C9252C"/>
				<stop  offset="0.1256" style="stop-color:#D0422B"/>
				<stop  offset="0.4203" style="stop-color:#E06F27"/>
				<stop  offset="0.6748" style="stop-color:#EC8C23"/>
				<stop  offset="0.8764" style="stop-color:#F59E1D"/>
				<stop  offset="1" style="stop-color:#FAA61A"/>
			</linearGradient>
			<path fill="url(#SVGID_16_)" d="M15.932,10.609H9.746c-0.249,0-0.417,0.159-0.417,0.392v0.068c0,0.245,0.148,0.384,0.416,0.395
				c0.088,0.002,0.213,0.002,0.279,0v4.987c0,0.454,0.328,0.812,0.746,0.812h5.161c0.34,0,0.459-0.116,0.459-0.448v-0.114
				c0-0.282-0.074-0.444-0.459-0.444c0,0-4.299,0-4.315,0c-0.006,0-0.017,0-0.017-0.021v-2.014c0-0.004,0.009-0.017,0.015-0.017
				h3.095c0.408,0,0.471-0.174,0.471-0.445v-0.113c0-0.239-0.034-0.436-0.471-0.436h-3.095c-0.014,0-0.015-0.009-0.015-0.02v-1.566
				c0-0.021,0.007-0.021,0.015-0.021h4.315c0.461,0,0.461-0.268,0.461-0.444v-0.104C16.391,10.867,16.391,10.609,15.932,10.609z"/>
			<linearGradient id="SVGID_17_" gradientUnits="userSpaceOnUse" x1="-0.9263" y1="9.9902" x2="123.0492" y2="26.8633">
				<stop  offset="0" style="stop-color:#C9252C"/>
				<stop  offset="0.1256" style="stop-color:#D0422B"/>
				<stop  offset="0.4203" style="stop-color:#E06F27"/>
				<stop  offset="0.6748" style="stop-color:#EC8C23"/>
				<stop  offset="0.8764" style="stop-color:#F59E1D"/>
				<stop  offset="1" style="stop-color:#FAA61A"/>
			</linearGradient>
			<path fill="url(#SVGID_17_)" d="M33.04,16.668c0-0.246-0.036-0.435-0.473-0.435h-3.834c-0.007,0-0.016,0-0.016-0.019v-5.097
				c0-0.305-0.081-0.509-0.481-0.509h-1.379c-0.308,0-0.417,0.212-0.417,0.392v0.069c0,0.194,0.128,0.394,0.417,0.394h0.278v4.988
				c0,0.447,0.334,0.812,0.745,0.812h4.7c0.426,0,0.46-0.195,0.46-0.448C33.041,16.755,33.04,16.71,33.04,16.668z"/>
			<linearGradient id="SVGID_18_" gradientUnits="userSpaceOnUse" x1="-0.7949" y1="9.1211" x2="123.1358" y2="25.9881">
				<stop  offset="0" style="stop-color:#C9252C"/>
				<stop  offset="0.1256" style="stop-color:#D0422B"/>
				<stop  offset="0.4203" style="stop-color:#E06F27"/>
				<stop  offset="0.6748" style="stop-color:#EC8C23"/>
				<stop  offset="0.8764" style="stop-color:#F59E1D"/>
				<stop  offset="1" style="stop-color:#FAA61A"/>
			</linearGradient>
			<path fill="url(#SVGID_18_)" d="M34.876,10.609h-1.375c-0.362,0-0.416,0.247-0.416,0.395v0.066c0,0.092,0.029,0.394,0.416,0.394
				h0.317v5.296c0,0.263,0.059,0.504,0.488,0.504h0.585c0.437,0,0.496-0.256,0.496-0.504v-5.646
				C35.388,10.759,35.239,10.612,34.876,10.609z"/>
			<linearGradient id="SVGID_19_" gradientUnits="userSpaceOnUse" x1="-0.688" y1="8.2197" x2="123.2962" y2="25.094">
				<stop  offset="0" style="stop-color:#C9252C"/>
				<stop  offset="0.1256" style="stop-color:#D0422B"/>
				<stop  offset="0.4203" style="stop-color:#E06F27"/>
				<stop  offset="0.6748" style="stop-color:#EC8C23"/>
				<stop  offset="0.8764" style="stop-color:#F59E1D"/>
				<stop  offset="1" style="stop-color:#FAA61A"/>
			</linearGradient>
			<path fill="url(#SVGID_19_)" d="M37.552,16.736c0,0.395,0.109,0.527,0.438,0.527h0.34c0.319,0,0.428-0.133,0.428-0.527
				c0-0.221-0.016-5.111-0.016-5.134c0-0.092,0-0.092,0.052-0.092c0.028,0,0.066,0.036,0.112,0.114
				c0.043,0.067,3.116,4.88,3.347,5.238c0.172,0.271,0.422,0.407,0.743,0.407c0.134,0,1.077-0.007,1.315-0.007
				c0.452,0,0.733-0.311,0.733-0.812c0-0.25,0.031-5.17,0.031-5.336c0-0.372-0.109-0.506-0.417-0.506h-0.368
				c-0.322,0-0.437,0.134-0.437,0.509c0,0.268,0.029,5.121,0.029,5.132c0,0.09-0.01,0.09-0.05,0.09
				c-0.037,0-0.059-0.031-0.123-0.123c-0.034-0.051-3.26-5.091-3.339-5.213c-0.18-0.275-0.395-0.395-0.719-0.395h-2.351
				c-0.307,0-0.417,0.199-0.417,0.38v0.067c0,0.246,0.156,0.394,0.417,0.394h0.279l-0.001,0.146
				C37.558,15.618,37.552,16.611,37.552,16.736z"/>
			<linearGradient id="SVGID_20_" gradientUnits="userSpaceOnUse" x1="-0.5078" y1="6.9185" x2="123.4653" y2="23.7912">
				<stop  offset="0" style="stop-color:#C9252C"/>
				<stop  offset="0.1256" style="stop-color:#D0422B"/>
				<stop  offset="0.4203" style="stop-color:#E06F27"/>
				<stop  offset="0.6748" style="stop-color:#EC8C23"/>
				<stop  offset="0.8764" style="stop-color:#F59E1D"/>
				<stop  offset="1" style="stop-color:#FAA61A"/>
			</linearGradient>
			<path fill="url(#SVGID_20_)" d="M50.907,17.374c0.933,0,1.752-0.077,2.43-0.232c0.625-0.14,0.687-0.438,0.687-1.134v-1.907
				c0-0.495-0.323-0.671-0.63-0.671c-0.116,0-1.907,0.031-2.076,0.033c-0.486,0.002-0.486,0.303-0.486,0.466v0.128
				c0,0.286,0.047,0.424,0.479,0.457c0.231,0.017,1.066,0.068,1.066,0.068c0.064,0.005,0.066,0.005,0.066,0.125v1.574
				c-0.002,0.044-0.005,0.044-0.024,0.049c-0.39,0.06-1.007,0.098-1.609,0.098c-1.678,0-2.589-0.405-2.589-2.546
				c0-2.014,0.963-2.381,2.859-2.381c0.859,0,2.531,0.201,2.557,0.201c0.21,0,0.266-0.135,0.274-0.249
				c0.021-0.23,0.025-0.387,0.025-0.41c0.004-0.167-0.095-0.284-0.263-0.312c0,0-0.921-0.244-2.95-0.244
				c-2.821,0-4.194,1.111-4.194,3.399C46.528,16.819,48.066,17.374,50.907,17.374z"/>
			<linearGradient id="SVGID_21_" gradientUnits="userSpaceOnUse" x1="-0.3643" y1="5.877" x2="123.6063" y2="22.7494">
				<stop  offset="0" style="stop-color:#C9252C"/>
				<stop  offset="0.1256" style="stop-color:#D0422B"/>
				<stop  offset="0.4203" style="stop-color:#E06F27"/>
				<stop  offset="0.6748" style="stop-color:#EC8C23"/>
				<stop  offset="0.8764" style="stop-color:#F59E1D"/>
				<stop  offset="1" style="stop-color:#FAA61A"/>
			</linearGradient>
			<path fill="url(#SVGID_21_)" d="M58.668,16.348c-1.298-0.062-2.854-0.375-2.881-0.375c-0.157,0-0.269,0.092-0.298,0.245
				c0,0-0.059,0.512-0.062,0.533c-0.03,0.239,0.212,0.308,0.291,0.329c0.113,0.03,1.989,0.313,3.594,0.313l0,0
				c0.539,0,3.015,0.064,3.015-2.109c0-1.861-1.535-2.026-3.181-2.149c-1.964-0.146-2.208-0.23-2.208-0.831
				c0-0.462,0.251-0.814,2.035-0.782c1.188,0.021,2.609,0.263,2.646,0.263c0.159,0,0.268-0.09,0.296-0.248
				c0.006-0.043,0.05-0.434,0.052-0.479c0.002-0.124-0.085-0.272-0.275-0.304c-0.683-0.116-1.716-0.254-2.759-0.254
				c-1.769,0-3.495,0.15-3.495,1.961c0,1.771,1.123,1.898,3.385,2.182c1.499,0.187,1.982,0.05,1.982,0.851
				C60.805,16.101,60.302,16.427,58.668,16.348z"/>

		<linearGradient id="SVGID_22_" gradientUnits="userSpaceOnUse" x1="-0.042" y1="3.6206" x2="123.9043" y2="20.4897">
			<stop  offset="0" style="stop-color:#C9252C"/>
			<stop  offset="0.1256" style="stop-color:#D0422B"/>
			<stop  offset="0.4203" style="stop-color:#E06F27"/>
			<stop  offset="0.6748" style="stop-color:#EC8C23"/>
			<stop  offset="0.8764" style="stop-color:#F59E1D"/>
			<stop  offset="1" style="stop-color:#FAA61A"/>
		</linearGradient>
		<path fill="url(#SVGID_22_)" d="M78.327,10.609h-6.185c-0.249,0-0.417,0.159-0.417,0.392v0.068c0,0.245,0.146,0.384,0.416,0.395
			c0.088,0.002,0.214,0.002,0.28,0v4.987c0,0.454,0.326,0.812,0.743,0.812h5.162c0.34,0,0.46-0.116,0.46-0.448v-0.114
			c0-0.282-0.075-0.444-0.46-0.444c0,0-4.299,0-4.314,0c-0.006,0-0.018,0-0.018-0.021v-2.014c0-0.004,0.01-0.017,0.015-0.017h3.096
			c0.408,0,0.471-0.174,0.471-0.445v-0.113c0-0.239-0.035-0.436-0.471-0.436H74.01c-0.013,0-0.015-0.009-0.015-0.02v-1.566
			c0-0.021,0.007-0.021,0.015-0.021h4.314c0.463,0,0.463-0.268,0.463-0.444v-0.104C78.787,10.867,78.787,10.609,78.327,10.609z"/>

	<linearGradient id="SVGID_23_" gradientUnits="userSpaceOnUse" x1="0.3838" y1="0.4478" x2="124.3427" y2="17.3186">
		<stop  offset="0" style="stop-color:#C9252C"/>
		<stop  offset="0.1256" style="stop-color:#D0422B"/>
		<stop  offset="0.4203" style="stop-color:#E06F27"/>
		<stop  offset="0.6748" style="stop-color:#EC8C23"/>
		<stop  offset="0.8764" style="stop-color:#F59E1D"/>
		<stop  offset="1" style="stop-color:#FAA61A"/>
	</linearGradient>
	<path fill="url(#SVGID_23_)" d="M101.776,10.569H95.59c-0.25,0-0.417,0.159-0.417,0.392v0.068c0,0.245,0.147,0.385,0.415,0.395
		c0.089,0.003,0.214,0.002,0.281,0v4.989c0,0.454,0.326,0.812,0.744,0.812h5.163c0.34,0,0.461-0.116,0.461-0.448v-0.114
		c0-0.282-0.075-0.444-0.461-0.444c0,0-4.3,0-4.315,0c-0.006,0-0.018,0-0.018-0.021v-2.014c0-0.006,0.009-0.018,0.016-0.018h3.096
		c0.407,0,0.471-0.173,0.471-0.445v-0.113c0-0.238-0.034-0.434-0.471-0.434h-3.096c-0.015,0-0.016-0.012-0.016-0.021v-1.566
		c0-0.022,0.007-0.022,0.016-0.022h4.315c0.463,0,0.463-0.267,0.463-0.443v-0.104C102.237,10.827,102.237,10.569,101.776,10.569z"/>

</svg>
